<?xml version="1.0" encoding="iso-8859-1"?>
<!-- Generator: Adobe Illustrator 16.0.0, SVG Export Plug-In . SVG Version: 6.00 Build 0)  -->
<!DOCTYPE svg PUBLIC "-//W3C//DTD SVG 1.1//EN" "http://www.w3.org/Graphics/SVG/1.1/DTD/svg11.dtd">
<svg xmlns="http://www.w3.org/2000/svg" xmlns:xlink="http://www.w3.org/1999/xlink" version="1.1" id="Capa_1" x="0px" y="0px" width="512px" height="512px" viewBox="0 0 391.974 391.974" style="enable-background:new 0 0 391.974 391.974;" xml:space="preserve">
<g>
	<path d="M391.886,156.001L380.385,30.585c-0.448-4.877-2.602-9.469-6.063-12.932c-3.463-3.462-8.055-5.615-12.931-6.063   L235.974,0.089c-6.231-0.57-12.343,1.639-16.768,6.063L6.142,219.216c-8.188,8.188-8.189,21.511,0,29.697L143.06,385.832   c8.188,8.188,21.51,8.188,29.698,0l213.064-213.063C390.247,168.344,392.457,162.233,391.886,156.001z M158.039,329.395   L62.58,233.936L238.557,57.958l95.46,95.459L158.039,329.395z M347.24,73.019c-7.811,7.811-20.475,7.811-28.286,0   c-7.81-7.811-7.81-20.474,0.001-28.284c7.812-7.811,20.475-7.811,28.284,0S355.05,65.209,347.24,73.019z" fill="#ffb03a"/>
</g>
<g>
</g>
<g>
</g>
<g>
</g>
<g>
</g>
<g>
</g>
<g>
</g>
<g>
</g>
<g>
</g>
<g>
</g>
<g>
</g>
<g>
</g>
<g>
</g>
<g>
</g>
<g>
</g>
<g>
</g>
</svg>
